<svg xmlns="http://www.w3.org/2000/svg" width="48" height="48" viewBox="0 -960 960 960"><path d="m480-129.54-39.769-36.923q-107.075-99.428-176.268-169.56T154.617-459.962q-40.154-53.808-55.385-97.373-15.23-43.566-15.23-87.357 0-87.312 60.204-147.309 60.204-59.998 147.487-59.998 52.846 0 101.576 26.654Q442-798.691 480-746.998q41.461-52.923 88.829-78.962 47.368-26.039 99.478-26.039 87.283 0 147.487 59.998 60.205 59.997 60.205 147.309 0 43.791-15.231 87.357-15.231 43.565-55.341 97.29-40.109 53.725-109.346 123.939-69.237 70.215-176.312 169.643L480-129.54Zm0-78.153q100.719-92.285 166.121-157.981 65.401-65.697 103.332-115.088 37.931-49.392 53.047-87.933 15.115-38.542 15.115-76.116 0-63.958-42.115-106.381-42.116-42.423-106.968-42.423-50.139 0-93.528 31.038-43.389 31.039-70.389 85.731H454.77q-26.77-54.077-70.651-85.423-43.881-31.346-92.651-31.346-64.468 0-106.775 42.137-42.308 42.138-42.308 107.229 0 37.252 15.177 75.997t53.346 87.883q38.169 49.138 103.208 114.984Q379.154-299.539 480-207.693Zm0-293.461Z"/></svg>