<svg xmlns="http://www.w3.org/2000/svg" width="48" height="48" viewBox="0 -960 960 960"><path d="m480-129.54-39.769-36.923q-107.307-99.307-176.384-169.5-69.077-70.192-109.23-123.999-40.154-53.808-55.385-97.307-15.23-43.5-15.23-87.423 0-87.307 59.999-147.307 60-60 147.692-60 52.846 0 101.576 26.654Q442-798.691 480-746.998q41.461-52.923 88.884-78.962t99.423-26.039q87.692 0 147.692 60 60 60 60 147.307 0 43.923-15.231 87.423-15.231 43.499-55.385 97.307-40.153 53.807-109.23 123.999-69.077 70.193-176.384 169.5L480-129.54Z"/></svg>